<svg width="36" height="36" viewBox="0 0 36 36" fill="none" xmlns="http://www.w3.org/2000/svg">
<path d="M10 26.9998V24.3135C10 22.1043 11.7909 20.3135 14 20.3135H22C24.2091 20.3135 26 22.1043 26 24.3135V26.9998" stroke="white" stroke-width="1.5" stroke-linecap="round"/>
<circle cx="18" cy="13" r="4.25" stroke="white" stroke-width="1.5"/>
<path d="M2 9V3C2 2.44772 2.44772 2 3 2H9" stroke="white" stroke-width="1.5" stroke-linecap="round"/>
<path d="M27 2L33 2C33.5523 2 34 2.44772 34 3L34 9" stroke="white" stroke-width="1.5" stroke-linecap="round"/>
<path d="M34 27L34 33C34 33.5523 33.5523 34 33 34L27 34" stroke="white" stroke-width="1.5" stroke-linecap="round"/>
<path d="M9 34L3 34C2.44772 34 2 33.5523 2 33L2 27" stroke="white" stroke-width="1.5" stroke-linecap="round"/>
</svg>
