<svg width="36" height="36" viewBox="0 0 36 36" fill="none" xmlns="http://www.w3.org/2000/svg">
<path fill-rule="evenodd" clip-rule="evenodd" d="M33.3171 30.5893L18.4642 4.875C18.2579 4.51786 17.7421 4.51786 17.5358 4.875L2.68288 30.5893C2.47659 30.9464 2.73445 31.3929 3.14704 31.3929H32.853C33.2655 31.3929 33.5234 30.9464 33.3171 30.5893ZM19.8566 4.07143C19.0315 2.64286 16.9685 2.64286 16.1434 4.07143L1.29042 29.7857C0.465254 31.2143 1.49671 33 3.14704 33H32.853C34.5033 33 35.5347 31.2143 34.7096 29.7857L19.8566 4.07143Z" fill="white"/>
<path d="M17.74 27.7798C17.3313 27.7798 17 27.4485 17 27.0398V27C17 26.5913 17.3313 26.26 17.74 26.26C18.1487 26.26 18.48 26.5913 18.48 27V27.0398C18.48 27.4485 18.1487 27.7798 17.74 27.7798ZM17.74 24.84C17.3313 24.84 17 24.5087 17 24.1V14.74C17 14.3313 17.3313 14 17.74 14C18.1487 14 18.48 14.3313 18.48 14.74V24.1C18.48 24.5087 18.1487 24.84 17.74 24.84Z" fill="white"/>
</svg>
