<svg width="36" height="37" viewBox="0 0 36 37" fill="none" xmlns="http://www.w3.org/2000/svg">
<path d="M35.25 18.3346C35.25 27.8518 27.5276 35.5683 18 35.5683C8.47245 35.5683 0.75 27.8518 0.75 18.3346C0.75 8.81727 8.47245 1.10083 18 1.10083C27.5276 1.10083 35.25 8.81727 35.25 18.3346Z" stroke="white" stroke-width="1.5"/>
<path d="M26.25 18.3346C26.25 23.2093 25.2596 27.5856 23.6933 30.7153C22.1046 33.8898 20.0485 35.5683 18 35.5683C15.9515 35.5683 13.8954 33.8898 12.3067 30.7153C10.7404 27.5856 9.75 23.2093 9.75 18.3346C9.75 13.4598 10.7404 9.08356 12.3067 5.95379C13.8954 2.77936 15.9515 1.10083 18 1.10083C20.0485 1.10083 22.1046 2.77936 23.6933 5.95379C25.2596 9.08356 26.25 13.4598 26.25 18.3346Z" stroke="white" stroke-width="1.5"/>
<path d="M2 14L34 14" stroke="white" stroke-width="1.5" stroke-linecap="round"/>
<path d="M2 26L34 26" stroke="white" stroke-width="1.5" stroke-linecap="round"/>
</svg>
