<svg width="36" height="52" viewBox="0 0 36 52" fill="none" xmlns="http://www.w3.org/2000/svg">
<path d="M35.25 18.6446C35.25 28.0138 27.5375 35.6281 18 35.6281C8.4625 35.6281 0.75 28.0138 0.75 18.6446C0.75 9.27541 8.4625 1.66113 18 1.66113C27.5375 1.66113 35.25 9.27541 35.25 18.6446Z" stroke="white" stroke-width="1.5"/>
<path d="M26.25 18.6446C26.25 23.4488 25.2601 27.7611 23.6952 30.8447C22.109 33.97 20.054 35.6281 18 35.6281C15.946 35.6281 13.891 33.97 12.3048 30.8447C10.7399 27.7611 9.75 23.4488 9.75 18.6446C9.75 13.8404 10.7399 9.52814 12.3048 6.44458C13.891 3.31927 15.946 1.66113 18 1.66113C20.054 1.66113 22.109 3.31927 23.6952 6.44458C25.2601 9.52814 26.25 13.8404 26.25 18.6446Z" stroke="white" stroke-width="1.5"/>
<path d="M2 39L34 39" stroke="white" stroke-width="1.5" stroke-linecap="round"/>
<path d="M2 51L34 51" stroke="white" stroke-width="1.5" stroke-linecap="round"/>
</svg>
