<svg width="36" height="58" viewBox="0 0 36 58" fill="none" xmlns="http://www.w3.org/2000/svg">
<path d="M18 34.6868C27.3885 34.6868 35 27.188 35 17.9385C35 8.68895 27.3885 1.19019 18 1.19019C8.61147 1.19019 1 8.68895 1 17.9385C1 27.188 8.61147 34.6868 18 34.6868Z" stroke="white" stroke-width="1.5" stroke-linecap="round" stroke-linejoin="round"/>
<path d="M11.7664 15.7069C12.2173 15.7069 12.6497 15.5304 12.9685 15.2161C13.2873 14.9019 13.4664 14.4757 13.4664 14.0313C13.4664 13.5869 13.2873 13.1607 12.9685 12.8465C12.6497 12.5322 12.2173 12.3557 11.7664 12.3557C11.3155 12.3557 10.8831 12.5322 10.5643 12.8465C10.2455 13.1607 10.0664 13.5869 10.0664 14.0313C10.0664 14.4757 10.2455 14.9019 10.5643 15.2161C10.8831 15.5304 11.3155 15.7069 11.7664 15.7069ZM24.2331 15.7069C24.6839 15.7069 25.1163 15.5304 25.4352 15.2161C25.754 14.9019 25.9331 14.4757 25.9331 14.0313C25.9331 13.5869 25.754 13.1607 25.4352 12.8465C25.1163 12.5322 24.6839 12.3557 24.2331 12.3557C23.7822 12.3557 23.3498 12.5322 23.031 12.8465C22.7122 13.1607 22.5331 13.5869 22.5331 14.0313C22.5331 14.4757 22.7122 14.9019 23.031 15.2161C23.3498 15.5304 23.7822 15.7069 24.2331 15.7069Z" fill="white"/>
<path d="M25.7333 22C24.9846 23.2719 23.91 24.3276 22.6171 25.0615C21.3243 25.7953 19.8586 26.1816 18.3667 26.1816C16.8748 26.1816 15.409 25.7953 14.1162 25.0615C12.8233 24.3276 11.7488 23.2719 11 22" stroke="white" stroke-width="1.5" stroke-linecap="round" stroke-linejoin="round"/>
</svg>
