<svg width="36" height="57" viewBox="0 0 36 57" fill="none" xmlns="http://www.w3.org/2000/svg">
<path d="M6.516 28.2526C5.078 26.8368 6.031 23.8655 5.296 22.1266C4.563 20.3868 1.75 18.8627 1.75 16.9386C1.75 15.0145 4.531 13.5515 5.297 11.7506C6.063 9.94963 5.078 7.04134 6.516 5.62463C7.953 4.20792 10.969 5.14681 12.734 4.4227C14.5 3.70055 16.047 0.929199 18 0.929199C19.953 0.929199 21.438 3.66902 23.266 4.42368C25.094 5.17834 28.046 4.20792 29.484 5.62463C30.922 7.04036 29.969 10.0117 30.704 11.7506C31.437 13.4904 34.25 15.0145 34.25 16.9386C34.25 18.8627 31.469 20.3257 30.703 22.1266C29.937 23.9276 30.922 26.8359 29.484 28.2526C28.047 29.6693 25.031 28.7304 23.266 29.4545C21.5 30.1766 19.953 32.948 18 32.948C16.047 32.948 14.562 30.2082 12.734 29.4535C10.906 28.6989 7.954 29.6693 6.516 28.2526Z" stroke="white" stroke-width="1.5" stroke-linecap="round" stroke-linejoin="round"/>
<path d="M24.875 13.2441L15.703 21.8646L11.125 17.5544" stroke="white" stroke-width="1.5" stroke-linecap="round" stroke-linejoin="round"/>
</svg>
