<svg width="36" height="36" viewBox="0 0 36 36" fill="none" xmlns="http://www.w3.org/2000/svg">
<path d="M34.0582 27.3835L34.0572 27.3847C33.9647 27.4975 33.8404 27.594 33.6908 27.662C33.5411 27.73 33.3731 27.766 33.201 27.7649H33.196H2.8013C2.80126 27.7649 2.80122 27.7649 2.80118 27.7649C2.63418 27.7648 2.47121 27.7302 2.3249 27.6656C2.17864 27.601 2.05542 27.5094 1.96145 27.4016C1.86772 27.2941 1.80532 27.1732 1.77397 27.0493C1.7427 26.9256 1.74203 26.7979 1.77194 26.6741L1.77196 26.6741L5.39474 11.6758C5.9904 9.21119 7.4676 6.98775 9.60708 5.36628C11.7475 3.7441 14.4243 2.82115 17.2128 2.75395C20.0012 2.68674 22.7282 3.47951 24.9598 4.99759C27.1904 6.51499 28.7933 8.66589 29.5289 11.0997C29.5289 11.0998 29.529 11.1 29.529 11.1001L34.2128 26.63L34.2127 26.63L34.2147 26.6364C34.2538 26.762 34.2604 26.8926 34.2346 27.0195C34.2088 27.1468 34.1502 27.2718 34.0582 27.3835Z" stroke="white" stroke-width="1.5"/>
<path d="M25 28C25 31.3137 21.866 34 18 34C14.134 34 11 31.3137 11 28" stroke="white" stroke-width="1.5"/>
</svg>
