<svg width="36" height="36" viewBox="0 0 36 36" fill="none" xmlns="http://www.w3.org/2000/svg">
<path d="M23.25 12C23.25 18.2132 18.2132 23.25 12 23.25C5.7868 23.25 0.75 18.2132 0.75 12C0.75 5.7868 5.7868 0.75 12 0.75C18.2132 0.75 23.25 5.7868 23.25 12Z" stroke="white" stroke-width="1.5"/>
<path d="M35.25 24C35.25 30.2132 30.2132 35.25 24 35.25C17.7868 35.25 12.75 30.2132 12.75 24C12.75 17.7868 17.7868 12.75 24 12.75C30.2132 12.75 35.25 17.7868 35.25 24Z" stroke="white" stroke-width="1.5"/>
<path d="M13.3125 18.9375L17.0625 22.6875" stroke="white"/>
<path d="M14.8125 16.6875L19.3125 21.1875" stroke="white"/>
<path d="M16.6875 14.8125L21.1875 19.3125" stroke="white"/>
<path d="M18.9375 13.3125L22.6875 17.0625" stroke="white"/>
</svg>
